<svg width="1670" height="413" viewBox="0 0 1670 413" fill="none" xmlns="http://www.w3.org/2000/svg">
<path d="M1559.83 152.214C1559.86 152.017 1559.87 151.824 1559.86 151.632C1559.51 152.25 1559.05 152.826 1558.49 153.385C1554.51 156.852 1546.84 161.686 1543.33 167.057C1542.23 168.559 1542.13 169.845 1542.55 170.873C1542.57 170.916 1542.59 170.958 1542.6 171C1543.59 172.133 1544.67 173.206 1545.85 174.213C1545.84 174.203 1545.84 174.19 1545.84 174.18C1545.08 172.081 1546.46 169.881 1547.53 168.123C1549.41 165.011 1552.14 162.488 1555.01 160.339C1557.39 158.608 1558.51 157.287 1559.13 155.361C1559.17 155.221 1559.22 155.081 1559.26 154.936C1559.46 154.244 1559.62 153.489 1559.78 152.655C1559.81 152.503 1559.82 152.359 1559.84 152.21L1559.83 152.214Z" fill="url(#paint0_linear_1101_10232)"/>
<path d="M1577.18 45.8226C1578.14 46.7785 1575.15 50.6138 1576.21 51.6895C1581.15 56.5905 1587.76 63.3327 1589.97 69.116C1590.52 68.573 1590.96 67.9495 1591.29 67.2356C1591.41 60.7313 1584 52.7402 1577.17 45.8177L1577.18 45.8226Z" fill="url(#paint1_linear_1101_10232)"/>
<path d="M1538.78 110.212C1545.25 113.369 1559.55 113.722 1562.61 119.974C1563.29 119.233 1563.82 118.418 1564.15 117.491C1564.11 115.493 1563.41 113.472 1560.92 111.379C1554.72 105.478 1542.28 106.982 1537.29 99.7359C1537.17 99.543 1537.11 99.3309 1537.08 99.1092C1536.39 98.2163 1536.27 97.0736 1536.43 95.8178C1534.41 101.383 1534.23 107.418 1538.77 110.216L1538.78 110.212Z" fill="url(#paint2_linear_1101_10232)"/>
<path d="M1591.26 67.6889C1591.27 67.5396 1591.29 67.3909 1591.29 67.2405C1590.96 67.9544 1590.52 68.5779 1589.98 69.1208C1585.76 73.296 1575.51 72.8574 1568.33 74.5999C1558.51 76.6143 1544.04 79.6366 1537.53 93.0566C1537.13 93.9427 1536.76 94.8695 1536.43 95.8141C1536.27 97.0699 1536.39 98.217 1537.09 99.1055C1536.75 96.2521 1542.52 91.4608 1546.04 89.0059C1550.77 85.681 1556.1 83.994 1560.69 82.7794C1568.77 80.5991 1576.31 79.3936 1583.08 77.8441C1587.82 76.7781 1589.69 74.7513 1590.61 71.3849C1590.71 71.0173 1590.81 70.6392 1590.89 70.2425C1591.02 69.6124 1591.14 68.9494 1591.23 68.2486C1591.26 68.0656 1591.25 67.8742 1591.27 67.6895L1591.26 67.6889Z" fill="url(#paint3_linear_1101_10232)"/>
<path d="M1538.86 143.641C1538.03 143.147 1537.46 142.44 1537.29 141.41C1537.28 141.449 1537.28 141.493 1537.27 141.532C1537.27 141.615 1537.25 141.697 1537.25 141.781C1537.2 143.612 1537.02 145.437 1537.47 146.882C1537.49 146.951 1537.51 147.021 1537.53 147.091C1538.04 148.521 1539.26 149.485 1541.62 149.831C1546.34 149.907 1556.25 149.572 1558.49 153.381C1559.05 152.826 1559.52 152.251 1559.86 151.628C1559.79 148.397 1556.48 146.121 1551.99 145.446C1547.56 144.58 1541.94 145.31 1538.86 143.641Z" fill="url(#paint4_linear_1101_10232)"/>
<path d="M1564.15 117.925C1564.15 117.779 1564.16 117.633 1564.15 117.491C1563.82 118.417 1563.29 119.233 1562.61 119.974C1559.72 122.981 1554.36 125.13 1548.79 128.759C1543.36 132.202 1537.72 137.121 1537.29 141.415C1537.46 142.445 1538.03 143.152 1538.86 143.645C1541.76 139.109 1547.74 134.898 1552.82 131.953C1557.98 128.828 1562.23 126.972 1563.39 123.021C1563.4 122.97 1563.41 122.918 1563.42 122.866C1563.46 122.703 1563.51 122.541 1563.54 122.371C1563.79 120.787 1564.11 119.34 1564.15 117.93L1564.15 117.925Z" fill="url(#paint5_linear_1101_10232)"/>
<path d="M330.262 320.749C330.334 320.473 330.392 320.193 330.432 319.915C329.855 320.58 329.124 321.082 328.266 321.418C322.147 324.015 310.723 317.531 304.17 312.4C302.158 310.899 300.982 310.496 300.202 310.702C300.17 310.709 300.139 310.721 300.108 310.732C299.548 311.704 298.96 312.668 298.347 313.616C298.357 313.62 298.371 313.628 298.381 313.637C300.533 314.591 303.799 317.981 306.572 319.979C311.337 323.405 316.254 326.174 321.184 327.527C325.233 328.617 327.191 327.298 328.544 324.938C328.642 324.766 328.739 324.589 328.836 324.399C329.287 323.504 329.678 322.484 330.08 321.363C330.153 321.156 330.198 320.951 330.256 320.74L330.262 320.749Z" fill="url(#paint6_linear_1101_10232)"/>
<path d="M310.182 201.767C311.27 200.863 313.66 208.402 314.735 207.5C320.087 203.286 328.424 198.622 334.427 201.625C334.161 200.143 333.752 198.717 333.193 197.374C326.914 189.707 316.969 195.257 310.182 201.772L310.182 201.767Z" fill="url(#paint7_linear_1101_10232)"/>
<path d="M310.39 272.538C315.873 274.826 330.265 275.645 334.621 281.456C335.235 280.591 335.667 279.623 335.862 278.558C335.492 276.385 334.369 274.403 331.382 272.82C323.468 268.887 312.326 270.257 306.829 267.254C306.686 267.182 306.587 267.092 306.503 266.997C305.719 266.7 305.329 266.241 305.116 265.696C305.084 268.356 306.188 270.78 310.385 272.539L310.39 272.538Z" fill="url(#paint8_linear_1101_10232)"/>
<path d="M333.603 197.919C333.466 197.736 333.333 197.543 333.192 197.37C333.756 198.712 334.165 200.138 334.426 201.621C336.552 213.329 329.764 227.001 324.835 235.633C317.883 248.234 306.234 258.041 305.221 264.338C305.152 264.793 305.125 265.245 305.115 265.696C305.329 266.245 305.719 266.7 306.502 266.998C305.495 265.871 308.793 262.657 311.1 259.977C314.13 256.603 318.38 252.702 322.047 248.544C328.503 241.25 334.135 231.925 337.408 221.371C339.686 213.951 339.061 208.509 336.636 203.19C336.369 202.603 336.08 202.018 335.767 201.429C335.269 200.496 334.72 199.557 334.111 198.599C333.951 198.349 333.775 198.146 333.608 197.914L333.603 197.919Z" fill="url(#paint9_linear_1101_10232)"/>
<path d="M311.472 294.71C310.927 293.831 310.621 293.008 310.638 292.217C310.631 292.24 310.619 292.269 310.612 292.292C310.597 292.344 310.568 292.392 310.558 292.447C310.264 293.662 309.775 294.734 309.772 295.988C309.776 296.047 309.772 296.112 309.776 296.171C309.822 297.463 310.388 298.97 312.15 301.227C315.412 305.325 326.004 314.509 328.281 321.426C329.134 321.09 329.864 320.584 330.447 319.923C331.718 310.219 315.236 300.972 311.481 294.714L311.472 294.71Z" fill="url(#paint10_linear_1101_10232)"/>
<path d="M335.923 279.031C335.902 278.872 335.887 278.712 335.857 278.558C335.662 279.624 335.235 280.591 334.617 281.456C329.383 289.022 312.265 287.377 310.634 292.213C310.617 293.003 310.923 293.826 311.468 294.706C317.149 292.411 334.285 294.179 335.806 284.755C335.816 284.7 335.821 284.64 335.826 284.58C335.849 284.394 335.882 284.208 335.891 284.015C335.975 282.218 336.111 280.574 335.918 279.032L335.923 279.031Z" fill="url(#paint11_linear_1101_10232)"/>
<path d="M1308.13 300.209C1308.11 299.761 1308.08 299.328 1308.02 298.904C1307.68 300.392 1307.15 301.83 1306.45 303.209C1301.56 312.942 1288.82 320.08 1280.91 324.49C1278.52 325.829 1277.33 327.709 1276.77 329.912C1276.74 330.001 1276.72 330.099 1276.7 330.188C1276.67 333.358 1276.64 336.527 1276.61 339.696C1276.61 339.68 1276.63 339.664 1276.65 339.648C1278.84 336.058 1283.12 334.621 1286.35 332.393C1291.91 328.565 1297.33 324.637 1302.27 319.833C1306.31 315.894 1307.58 312.132 1307.98 307.565C1308.01 307.231 1308.03 306.889 1308.06 306.547C1308.16 304.894 1308.17 303.134 1308.18 301.22C1308.18 300.869 1308.15 300.543 1308.14 300.201L1308.13 300.209Z" fill="url(#paint12_linear_1101_10232)"/>
<path d="M1311.59 96.4052C1312.9 97.1992 1310.05 106.87 1311.49 107.738C1318.21 111.783 1327.55 117.806 1331.09 126.222C1331.66 124.703 1332.09 123.127 1332.37 121.483C1331.4 109.293 1320.67 101.864 1311.59 96.4052Z" fill="url(#paint13_linear_1101_10232)"/>
<path d="M1279.58 215.9C1285.38 223.603 1301.01 225.617 1305.71 234.898C1306.39 233.324 1306.87 231.633 1307.11 229.819C1306.77 226.157 1305.66 222.864 1302.52 219.723C1294.25 211.436 1281.91 211.439 1276.5 199.136C1276.36 198.826 1276.27 198.491 1276.2 198.148C1275.41 196.682 1275.09 194.96 1274.99 193.118C1274.34 201.04 1275.15 210.034 1279.57 215.891L1279.58 215.9Z" fill="url(#paint14_linear_1101_10232)"/>
<path d="M1332.41 122.339C1332.4 122.054 1332.39 121.76 1332.37 121.483C1332.09 123.126 1331.66 124.703 1331.09 126.222C1326.65 137.972 1314.09 146.015 1305.59 153.191C1293.54 163.341 1278.16 170.715 1275.44 189.187C1275.25 190.456 1275.11 191.775 1275 193.126C1275.11 194.969 1275.43 196.691 1276.21 198.156C1275.35 193.863 1279.64 187.448 1282.82 183.419C1286.96 178.184 1292.6 174.414 1297.78 170.655C1306.9 164.031 1316.06 156.43 1323.94 148.035C1329.47 142.136 1331.51 136.704 1332.17 129.743C1332.25 128.978 1332.31 128.196 1332.35 127.398C1332.42 126.128 1332.45 124.8 1332.46 123.407C1332.46 123.04 1332.42 122.698 1332.41 122.339Z" fill="url(#paint15_linear_1101_10232)"/>
<path d="M1282.08 274.464C1281.33 272.975 1280.84 271.259 1280.72 269.246C1280.72 269.319 1280.71 269.392 1280.7 269.466C1280.7 269.612 1280.67 269.759 1280.67 269.913C1280.59 273.27 1280.32 276.526 1280.61 279.584C1280.62 279.731 1280.64 279.878 1280.65 280.033C1281.01 283.092 1281.98 285.936 1284.37 288.442C1288.78 293.069 1301.92 296.462 1306.45 303.225C1307.15 301.838 1307.67 300.409 1308.02 298.921C1306.25 284.532 1287.41 285.104 1282.08 274.481L1282.08 274.464Z" fill="url(#paint16_linear_1101_10232)"/>
<path d="M1307.17 230.618C1307.15 230.349 1307.13 230.088 1307.11 229.819C1306.86 231.634 1306.39 233.316 1305.71 234.899C1300.13 247.999 1281.61 253.977 1280.72 269.254C1280.84 271.26 1281.33 272.975 1282.08 274.473C1287.55 261.542 1305.83 255.628 1307.06 240.288C1307.06 240.191 1307.07 240.085 1307.08 239.987C1307.09 239.669 1307.13 239.352 1307.13 239.026C1307.18 235.987 1307.34 233.219 1307.17 230.618Z" fill="url(#paint17_linear_1101_10232)"/>
<path d="M144.369 176.069C144.283 175.687 144.183 175.319 144.057 174.961C143.741 176.281 143.148 177.58 142.277 178.851C136.351 187.805 116.562 195.639 103.294 200.561C99.3245 202.05 97.192 203.858 96.0379 205.866C95.9876 205.948 95.9449 206.036 95.8946 206.118C95.5296 208.9 95.1646 211.682 94.7996 214.464C94.8196 214.449 94.8467 214.432 94.8667 214.417C99.0094 210.96 106.363 209.109 111.849 206.723C121.273 202.623 130.028 198.49 137.466 193.701C143.541 189.776 144.956 186.388 145.023 182.412C145.029 182.121 145.027 181.824 145.018 181.527C144.971 180.093 144.776 178.579 144.549 176.933C144.512 176.632 144.434 176.355 144.368 176.062L144.369 176.069Z" fill="url(#paint18_linear_1101_10232)"/>
<path d="M122.419 0.662984C122.563 1.33147 121.536 11.832 121.705 12.5552C122.641 15.9446 127.064 18.7664 130.11 25.8223C129.832 24.52 129.494 23.1727 129.095 21.7736C125.423 11.4742 122.906 5.29774 122.419 0.662984Z" fill="url(#paint19_linear_1101_10232)"/>
<path d="M110.42 105.668C114.627 111.989 128.841 112.517 134.378 120.116C134.891 118.696 135.179 117.208 135.219 115.626C134.517 112.502 133.129 109.756 130.163 107.282C122.534 100.737 112.386 101.622 109.73 91.18C109.667 90.9159 109.637 90.6279 109.629 90.3312C109.235 89.0945 109.233 87.6009 109.398 85.9881C107.944 92.9891 107.202 100.855 110.413 105.661L110.42 105.668Z" fill="url(#paint20_linear_1101_10232)"/>
<path d="M129.329 22.4986C129.246 22.2572 129.17 22.0082 129.089 21.7739C129.487 23.173 129.825 24.5203 130.103 25.8226C132.44 35.8855 129.939 43.1659 126.976 49.6961C123.088 58.9174 114.59 66.103 110.198 82.5137C109.917 83.6398 109.654 84.8071 109.406 86.0015C109.241 87.6142 109.244 89.1078 109.637 90.3446C109.582 86.625 113.302 80.7299 115.494 77.0345C118.449 72.2252 121.733 68.6505 124.349 65.1417C128.974 58.957 132.183 52.0325 133.235 44.5954C133.963 39.371 132.979 34.7111 131.274 28.7902C131.083 28.1396 130.889 27.4749 130.681 26.7972C130.349 25.7115 130.001 24.5916 129.626 23.4101C129.524 23.0994 129.431 22.8093 129.329 22.5056L129.329 22.4986Z" fill="url(#paint21_linear_1101_10232)"/>
<path d="M108.384 156.691C107.539 155.468 107.065 154.018 107.064 152.27C107.055 152.334 107.039 152.399 107.03 152.464C107.012 152.593 106.972 152.723 106.961 152.858C106.602 155.803 105.99 158.682 106.138 161.326C106.148 161.452 106.157 161.579 106.168 161.713C106.4 164.349 107.463 166.731 110.592 168.648C116.317 172.19 134.812 173.603 142.285 178.864C143.156 177.586 143.75 176.294 144.065 174.974C139.683 162.826 114.441 165.426 108.399 156.704L108.384 156.691Z" fill="url(#paint22_linear_1101_10232)"/>
<path d="M135.364 116.309C135.318 116.079 135.279 115.848 135.227 115.625C135.186 117.207 134.898 118.695 134.385 120.115C130.48 131.844 109.772 138.786 107.065 152.277C107.065 154.019 107.539 155.469 108.384 156.699C116.488 144.786 137.032 137.92 136.265 124.642C136.258 124.558 136.251 124.466 136.245 124.382C136.23 124.107 136.23 123.831 136.201 123.55C135.935 120.93 135.785 118.534 135.35 116.31L135.364 116.309Z" fill="url(#paint23_linear_1101_10232)"/>
<path d="M1482.87 391.217C1482.85 390.941 1482.83 390.674 1482.8 390.417C1482.76 391.31 1482.67 392.162 1482.55 392.966C1481.68 398.652 1479.3 402.022 1477.76 404.033C1477.29 404.643 1477.12 405.665 1477.09 406.924C1477.09 406.979 1477.09 407.029 1477.09 407.084C1477.23 408.958 1477.32 410.836 1477.36 412.727C1477.36 412.717 1477.37 412.707 1477.37 412.697C1477.83 410.73 1478.76 410.22 1479.41 409.144C1480.51 407.294 1481.49 405.349 1482.36 402.79C1483.07 400.69 1483.2 398.473 1483.11 395.71C1483.1 395.507 1483.1 395.303 1483.09 395.095C1483.05 394.088 1482.99 393.014 1482.92 391.845C1482.91 391.633 1482.89 391.43 1482.88 391.222L1482.87 391.217Z" fill="url(#paint24_linear_1101_10232)"/>
<path d="M1479.48 264.006C1480.79 263.886 1479.04 271.266 1480.42 271.142C1487.03 270.629 1496.68 270.667 1500.7 275.194C1501.15 273.924 1501.45 272.654 1501.57 271.397C1499.52 263.162 1488.09 262.925 1479.48 264.006Z" fill="url(#paint25_linear_1101_10232)"/>
<path d="M1462.54 342.471C1467.7 346.026 1477.46 345.832 1480.27 351.223C1480.59 350.214 1480.84 349.147 1480.95 348.016C1480.68 345.798 1479.97 343.855 1477.83 342.27C1472.05 338.174 1463.61 339.619 1457.39 333.869C1457.23 333.727 1457.1 333.562 1456.98 333.391C1456.13 332.737 1455.56 331.888 1455.14 330.944C1456.08 335.202 1458.62 339.756 1462.53 342.471L1462.54 342.471Z" fill="url(#paint26_linear_1101_10232)"/>
<path d="M1501.69 271.98C1501.65 271.784 1501.62 271.587 1501.57 271.397C1501.45 272.654 1501.15 273.923 1500.7 275.194C1497.12 285.138 1485 294.572 1477.45 301.363C1466.62 311.14 1453.53 318.775 1454.77 328.803C1454.85 329.498 1454.98 330.22 1455.14 330.944C1455.56 331.888 1456.13 332.742 1456.99 333.391C1455.5 331.281 1457.73 327.172 1459.85 324.323C1462.55 320.663 1467.02 317.297 1471.33 313.863C1478.88 307.822 1487.21 300.597 1494.59 292.531C1499.76 286.857 1501.69 282.327 1501.96 277.231C1501.99 276.672 1502 276.104 1501.99 275.529C1501.97 274.615 1501.92 273.674 1501.82 272.702C1501.79 272.445 1501.73 272.221 1501.69 271.98Z" fill="url(#paint27_linear_1101_10232)"/>
<path d="M1473.05 375.033C1472.59 374.167 1472.17 373.187 1471.83 372.049C1471.84 372.093 1471.85 372.132 1471.86 372.171C1471.88 372.254 1471.89 372.338 1471.91 372.421C1472.36 374.322 1472.72 376.171 1473.23 377.924C1473.25 378.007 1473.27 378.095 1473.3 378.177C1473.82 379.935 1474.49 381.592 1475.46 383.132C1477.3 385.967 1481.16 388.572 1482.55 392.962C1482.67 392.157 1482.76 391.306 1482.8 390.413C1481.91 381.497 1476.3 381.192 1473.04 375.029L1473.05 375.033Z" fill="url(#paint28_linear_1101_10232)"/>
<path d="M1481 348.499C1480.99 348.336 1480.97 348.173 1480.95 348.016C1480.84 349.147 1480.6 350.219 1480.26 351.222C1477.24 359.685 1469.64 363.521 1471.83 372.053C1472.17 373.193 1472.59 374.172 1473.05 375.038C1473 367.822 1480.43 364.058 1481.11 354.448C1481.11 354.388 1481.11 354.323 1481.11 354.264C1481.12 354.064 1481.13 353.875 1481.12 353.671C1481.1 351.804 1481.14 350.085 1481 348.504L1481 348.499Z" fill="url(#paint29_linear_1101_10232)"/>
<defs>
<linearGradient id="paint0_linear_1101_10232" x1="1541.33" y1="165.465" x2="1561.89" y2="161.052" gradientUnits="userSpaceOnUse">
<stop offset="0.07" stop-color="#FAD05F"/>
<stop offset="0.15" stop-color="#F5EDA4"/>
<stop offset="0.38" stop-color="#F1CF6E"/>
<stop offset="0.47" stop-color="#ECC45E"/>
<stop offset="0.57" stop-color="#E2B450"/>
<stop offset="0.65" stop-color="#AD7121"/>
<stop offset="0.72" stop-color="#F0D56C"/>
<stop offset="0.79" stop-color="#F6E57D"/>
<stop offset="0.84" stop-color="#F5EFA2"/>
<stop offset="0.89" stop-color="#FFF0C3"/>
<stop offset="1" stop-color="#F9C94A"/>
</linearGradient>
<linearGradient id="paint1_linear_1101_10232" x1="1573.8" y1="52.2987" x2="1593.68" y2="62.6697" gradientUnits="userSpaceOnUse">
<stop stop-color="#B36D14"/>
<stop offset="0.08" stop-color="#E89F2E"/>
<stop offset="0.15" stop-color="#FFE94C"/>
<stop offset="0.2" stop-color="#F2CA3E"/>
<stop offset="0.25" stop-color="#E9B233"/>
<stop offset="0.31" stop-color="#E2A12B"/>
<stop offset="0.37" stop-color="#DE9727"/>
<stop offset="0.45" stop-color="#DD9426"/>
<stop offset="0.49" stop-color="#DA9124"/>
<stop offset="0.52" stop-color="#D08A1F"/>
<stop offset="0.54" stop-color="#C17E17"/>
<stop offset="0.56" stop-color="#AB6D0C"/>
<stop offset="0.73" stop-color="#C48C21"/>
<stop offset="0.78" stop-color="#C68E21"/>
<stop offset="0.81" stop-color="#CF9524"/>
<stop offset="0.83" stop-color="#DDA229"/>
<stop offset="0.86" stop-color="#F5B731"/>
<stop offset="0.95" stop-color="#BF8437"/>
<stop offset="1" stop-color="#863A14"/>
</linearGradient>
<linearGradient id="paint2_linear_1101_10232" x1="1534.51" y1="105.859" x2="1565.16" y2="110.011" gradientUnits="userSpaceOnUse">
<stop stop-color="#B36D14"/>
<stop offset="0.08" stop-color="#E89F2E"/>
<stop offset="0.15" stop-color="#FFE94C"/>
<stop offset="0.2" stop-color="#F2CA3E"/>
<stop offset="0.25" stop-color="#E9B233"/>
<stop offset="0.31" stop-color="#E2A12B"/>
<stop offset="0.37" stop-color="#DE9727"/>
<stop offset="0.45" stop-color="#DD9426"/>
<stop offset="0.49" stop-color="#DA9124"/>
<stop offset="0.52" stop-color="#D08A1F"/>
<stop offset="0.54" stop-color="#C17E17"/>
<stop offset="0.56" stop-color="#AB6D0C"/>
<stop offset="0.73" stop-color="#C48C21"/>
<stop offset="0.78" stop-color="#C68E21"/>
<stop offset="0.81" stop-color="#CF9524"/>
<stop offset="0.83" stop-color="#DDA229"/>
<stop offset="0.86" stop-color="#F5B731"/>
<stop offset="0.95" stop-color="#BF8437"/>
<stop offset="1" stop-color="#863A14"/>
</linearGradient>
<linearGradient id="paint3_linear_1101_10232" x1="1538.61" y1="79.7083" x2="1588.76" y2="86.5008" gradientUnits="userSpaceOnUse">
<stop offset="0.07" stop-color="#FAD05F"/>
<stop offset="0.15" stop-color="#F5EDA4"/>
<stop offset="0.38" stop-color="#F1CF6E"/>
<stop offset="0.47" stop-color="#ECC45E"/>
<stop offset="0.57" stop-color="#E2B450"/>
<stop offset="0.65" stop-color="#AD7121"/>
<stop offset="0.72" stop-color="#F0D56C"/>
<stop offset="0.79" stop-color="#F6E57D"/>
<stop offset="0.84" stop-color="#F5EFA2"/>
<stop offset="0.89" stop-color="#FFF0C3"/>
<stop offset="1" stop-color="#F9C94A"/>
</linearGradient>
<linearGradient id="paint4_linear_1101_10232" x1="1536.68" y1="145.879" x2="1560.21" y2="149.066" gradientUnits="userSpaceOnUse">
<stop stop-color="#B36D14"/>
<stop offset="0.08" stop-color="#E89F2E"/>
<stop offset="0.15" stop-color="#FFE94C"/>
<stop offset="0.2" stop-color="#F2CA3E"/>
<stop offset="0.25" stop-color="#E9B233"/>
<stop offset="0.31" stop-color="#E2A12B"/>
<stop offset="0.37" stop-color="#DE9727"/>
<stop offset="0.45" stop-color="#DD9426"/>
<stop offset="0.49" stop-color="#DA9124"/>
<stop offset="0.52" stop-color="#D08A1F"/>
<stop offset="0.54" stop-color="#C17E17"/>
<stop offset="0.56" stop-color="#AB6D0C"/>
<stop offset="0.73" stop-color="#C48C21"/>
<stop offset="0.78" stop-color="#C68E21"/>
<stop offset="0.81" stop-color="#CF9524"/>
<stop offset="0.83" stop-color="#DDA229"/>
<stop offset="0.86" stop-color="#F5B731"/>
<stop offset="0.95" stop-color="#BF8437"/>
<stop offset="1" stop-color="#863A14"/>
</linearGradient>
<linearGradient id="paint5_linear_1101_10232" x1="1538.98" y1="128.867" x2="1562.31" y2="132.027" gradientUnits="userSpaceOnUse">
<stop offset="0.07" stop-color="#FAD05F"/>
<stop offset="0.15" stop-color="#F5EDA4"/>
<stop offset="0.38" stop-color="#F1CF6E"/>
<stop offset="0.47" stop-color="#ECC45E"/>
<stop offset="0.57" stop-color="#E2B450"/>
<stop offset="0.65" stop-color="#AD7121"/>
<stop offset="0.72" stop-color="#F0D56C"/>
<stop offset="0.79" stop-color="#F6E57D"/>
<stop offset="0.84" stop-color="#F5EFA2"/>
<stop offset="0.89" stop-color="#FFF0C3"/>
<stop offset="1" stop-color="#F9C94A"/>
</linearGradient>
<linearGradient id="paint6_linear_1101_10232" x1="297.915" y1="317.816" x2="330.302" y2="321.182" gradientUnits="userSpaceOnUse">
<stop offset="0.07" stop-color="#FAD05F"/>
<stop offset="0.15" stop-color="#F5EDA4"/>
<stop offset="0.38" stop-color="#F1CF6E"/>
<stop offset="0.47" stop-color="#ECC45E"/>
<stop offset="0.57" stop-color="#E2B450"/>
<stop offset="0.65" stop-color="#AD7121"/>
<stop offset="0.72" stop-color="#F0D56C"/>
<stop offset="0.79" stop-color="#F6E57D"/>
<stop offset="0.84" stop-color="#F5EFA2"/>
<stop offset="0.89" stop-color="#FFF0C3"/>
<stop offset="1" stop-color="#F9C94A"/>
</linearGradient>
<linearGradient id="paint7_linear_1101_10232" x1="311.716" y1="205.198" x2="332.537" y2="195.901" gradientUnits="userSpaceOnUse">
<stop stop-color="#B36D14"/>
<stop offset="0.08" stop-color="#E89F2E"/>
<stop offset="0.15" stop-color="#FFE94C"/>
<stop offset="0.2" stop-color="#F2CA3E"/>
<stop offset="0.25" stop-color="#E9B233"/>
<stop offset="0.31" stop-color="#E2A12B"/>
<stop offset="0.37" stop-color="#DE9727"/>
<stop offset="0.45" stop-color="#DD9426"/>
<stop offset="0.49" stop-color="#DA9124"/>
<stop offset="0.52" stop-color="#D08A1F"/>
<stop offset="0.54" stop-color="#C17E17"/>
<stop offset="0.56" stop-color="#AB6D0C"/>
<stop offset="0.73" stop-color="#C48C21"/>
<stop offset="0.78" stop-color="#C68E21"/>
<stop offset="0.81" stop-color="#CF9524"/>
<stop offset="0.83" stop-color="#DDA229"/>
<stop offset="0.86" stop-color="#F5B731"/>
<stop offset="0.95" stop-color="#BF8437"/>
<stop offset="1" stop-color="#863A14"/>
</linearGradient>
<linearGradient id="paint8_linear_1101_10232" x1="305.719" y1="274.583" x2="335.425" y2="272.474" gradientUnits="userSpaceOnUse">
<stop stop-color="#B36D14"/>
<stop offset="0.08" stop-color="#E89F2E"/>
<stop offset="0.15" stop-color="#FFE94C"/>
<stop offset="0.2" stop-color="#F2CA3E"/>
<stop offset="0.25" stop-color="#E9B233"/>
<stop offset="0.31" stop-color="#E2A12B"/>
<stop offset="0.37" stop-color="#DE9727"/>
<stop offset="0.45" stop-color="#DD9426"/>
<stop offset="0.49" stop-color="#DA9124"/>
<stop offset="0.52" stop-color="#D08A1F"/>
<stop offset="0.54" stop-color="#C17E17"/>
<stop offset="0.56" stop-color="#AB6D0C"/>
<stop offset="0.73" stop-color="#C48C21"/>
<stop offset="0.78" stop-color="#C68E21"/>
<stop offset="0.81" stop-color="#CF9524"/>
<stop offset="0.83" stop-color="#DDA229"/>
<stop offset="0.86" stop-color="#F5B731"/>
<stop offset="0.95" stop-color="#BF8437"/>
<stop offset="1" stop-color="#863A14"/>
</linearGradient>
<linearGradient id="paint9_linear_1101_10232" x1="302.822" y1="233.395" x2="340.153" y2="230.744" gradientUnits="userSpaceOnUse">
<stop offset="0.07" stop-color="#FAD05F"/>
<stop offset="0.15" stop-color="#F5EDA4"/>
<stop offset="0.38" stop-color="#F1CF6E"/>
<stop offset="0.47" stop-color="#ECC45E"/>
<stop offset="0.57" stop-color="#E2B450"/>
<stop offset="0.65" stop-color="#AD7121"/>
<stop offset="0.72" stop-color="#F0D56C"/>
<stop offset="0.79" stop-color="#F6E57D"/>
<stop offset="0.84" stop-color="#F5EFA2"/>
<stop offset="0.89" stop-color="#FFF0C3"/>
<stop offset="1" stop-color="#F9C94A"/>
</linearGradient>
<linearGradient id="paint10_linear_1101_10232" x1="310.563" y1="307.446" x2="329.621" y2="306.093" gradientUnits="userSpaceOnUse">
<stop stop-color="#B36D14"/>
<stop offset="0.08" stop-color="#E89F2E"/>
<stop offset="0.15" stop-color="#FFE94C"/>
<stop offset="0.2" stop-color="#F2CA3E"/>
<stop offset="0.25" stop-color="#E9B233"/>
<stop offset="0.31" stop-color="#E2A12B"/>
<stop offset="0.37" stop-color="#DE9727"/>
<stop offset="0.45" stop-color="#DD9426"/>
<stop offset="0.49" stop-color="#DA9124"/>
<stop offset="0.52" stop-color="#D08A1F"/>
<stop offset="0.54" stop-color="#C17E17"/>
<stop offset="0.56" stop-color="#AB6D0C"/>
<stop offset="0.73" stop-color="#C48C21"/>
<stop offset="0.78" stop-color="#C68E21"/>
<stop offset="0.81" stop-color="#CF9524"/>
<stop offset="0.83" stop-color="#DDA229"/>
<stop offset="0.86" stop-color="#F5B731"/>
<stop offset="0.95" stop-color="#BF8437"/>
<stop offset="1" stop-color="#863A14"/>
</linearGradient>
<linearGradient id="paint11_linear_1101_10232" x1="310.296" y1="287.581" x2="336.417" y2="285.727" gradientUnits="userSpaceOnUse">
<stop offset="0.07" stop-color="#FAD05F"/>
<stop offset="0.15" stop-color="#F5EDA4"/>
<stop offset="0.38" stop-color="#F1CF6E"/>
<stop offset="0.47" stop-color="#ECC45E"/>
<stop offset="0.57" stop-color="#E2B450"/>
<stop offset="0.65" stop-color="#AD7121"/>
<stop offset="0.72" stop-color="#F0D56C"/>
<stop offset="0.79" stop-color="#F6E57D"/>
<stop offset="0.84" stop-color="#F5EFA2"/>
<stop offset="0.89" stop-color="#FFF0C3"/>
<stop offset="1" stop-color="#F9C94A"/>
</linearGradient>
<linearGradient id="paint12_linear_1101_10232" x1="1276.78" y1="319.165" x2="1308.01" y2="319.445" gradientUnits="userSpaceOnUse">
<stop offset="0.07" stop-color="#FAD05F"/>
<stop offset="0.15" stop-color="#F5EDA4"/>
<stop offset="0.38" stop-color="#F1CF6E"/>
<stop offset="0.47" stop-color="#ECC45E"/>
<stop offset="0.57" stop-color="#E2B450"/>
<stop offset="0.65" stop-color="#AD7121"/>
<stop offset="0.72" stop-color="#F0D56C"/>
<stop offset="0.79" stop-color="#F6E57D"/>
<stop offset="0.84" stop-color="#F5EFA2"/>
<stop offset="0.89" stop-color="#FFF0C3"/>
<stop offset="1" stop-color="#F9C94A"/>
</linearGradient>
<linearGradient id="paint13_linear_1101_10232" x1="1311.03" y1="111.221" x2="1332.46" y2="111.413" gradientUnits="userSpaceOnUse">
<stop stop-color="#B36D14"/>
<stop offset="0.08" stop-color="#E89F2E"/>
<stop offset="0.15" stop-color="#FFE94C"/>
<stop offset="0.2" stop-color="#F2CA3E"/>
<stop offset="0.25" stop-color="#E9B233"/>
<stop offset="0.31" stop-color="#E2A12B"/>
<stop offset="0.37" stop-color="#DE9727"/>
<stop offset="0.45" stop-color="#DD9426"/>
<stop offset="0.49" stop-color="#DA9124"/>
<stop offset="0.52" stop-color="#D08A1F"/>
<stop offset="0.54" stop-color="#C17E17"/>
<stop offset="0.56" stop-color="#AB6D0C"/>
<stop offset="0.73" stop-color="#C48C21"/>
<stop offset="0.78" stop-color="#C68E21"/>
<stop offset="0.81" stop-color="#CF9524"/>
<stop offset="0.83" stop-color="#DDA229"/>
<stop offset="0.86" stop-color="#F5B731"/>
<stop offset="0.95" stop-color="#BF8437"/>
<stop offset="1" stop-color="#863A14"/>
</linearGradient>
<linearGradient id="paint14_linear_1101_10232" x1="1274.65" y1="213.876" x2="1307.25" y2="214.168" gradientUnits="userSpaceOnUse">
<stop stop-color="#B36D14"/>
<stop offset="0.08" stop-color="#E89F2E"/>
<stop offset="0.15" stop-color="#FFE94C"/>
<stop offset="0.2" stop-color="#F2CA3E"/>
<stop offset="0.25" stop-color="#E9B233"/>
<stop offset="0.31" stop-color="#E2A12B"/>
<stop offset="0.37" stop-color="#DE9727"/>
<stop offset="0.45" stop-color="#DD9426"/>
<stop offset="0.49" stop-color="#DA9124"/>
<stop offset="0.52" stop-color="#D08A1F"/>
<stop offset="0.54" stop-color="#C17E17"/>
<stop offset="0.56" stop-color="#AB6D0C"/>
<stop offset="0.73" stop-color="#C48C21"/>
<stop offset="0.78" stop-color="#C68E21"/>
<stop offset="0.81" stop-color="#CF9524"/>
<stop offset="0.83" stop-color="#DDA229"/>
<stop offset="0.86" stop-color="#F5B731"/>
<stop offset="0.95" stop-color="#BF8437"/>
<stop offset="1" stop-color="#863A14"/>
</linearGradient>
<linearGradient id="paint15_linear_1101_10232" x1="1275.29" y1="159.56" x2="1332.13" y2="160.069" gradientUnits="userSpaceOnUse">
<stop offset="0.07" stop-color="#FAD05F"/>
<stop offset="0.15" stop-color="#F5EDA4"/>
<stop offset="0.38" stop-color="#F1CF6E"/>
<stop offset="0.47" stop-color="#ECC45E"/>
<stop offset="0.57" stop-color="#E2B450"/>
<stop offset="0.65" stop-color="#AD7121"/>
<stop offset="0.72" stop-color="#F0D56C"/>
<stop offset="0.79" stop-color="#F6E57D"/>
<stop offset="0.84" stop-color="#F5EFA2"/>
<stop offset="0.89" stop-color="#FFF0C3"/>
<stop offset="1" stop-color="#F9C94A"/>
</linearGradient>
<linearGradient id="paint16_linear_1101_10232" x1="1280.39" y1="286.117" x2="1308.13" y2="286.366" gradientUnits="userSpaceOnUse">
<stop stop-color="#B36D14"/>
<stop offset="0.08" stop-color="#E89F2E"/>
<stop offset="0.15" stop-color="#FFE94C"/>
<stop offset="0.2" stop-color="#F2CA3E"/>
<stop offset="0.25" stop-color="#E9B233"/>
<stop offset="0.31" stop-color="#E2A12B"/>
<stop offset="0.37" stop-color="#DE9727"/>
<stop offset="0.45" stop-color="#DD9426"/>
<stop offset="0.49" stop-color="#DA9124"/>
<stop offset="0.52" stop-color="#D08A1F"/>
<stop offset="0.54" stop-color="#C17E17"/>
<stop offset="0.56" stop-color="#AB6D0C"/>
<stop offset="0.73" stop-color="#C48C21"/>
<stop offset="0.78" stop-color="#C68E21"/>
<stop offset="0.81" stop-color="#CF9524"/>
<stop offset="0.83" stop-color="#DDA229"/>
<stop offset="0.86" stop-color="#F5B731"/>
<stop offset="0.95" stop-color="#BF8437"/>
<stop offset="1" stop-color="#863A14"/>
</linearGradient>
<linearGradient id="paint17_linear_1101_10232" x1="1280.87" y1="252.023" x2="1307.08" y2="252.258" gradientUnits="userSpaceOnUse">
<stop offset="0.07" stop-color="#FAD05F"/>
<stop offset="0.15" stop-color="#F5EDA4"/>
<stop offset="0.38" stop-color="#F1CF6E"/>
<stop offset="0.47" stop-color="#ECC45E"/>
<stop offset="0.57" stop-color="#E2B450"/>
<stop offset="0.65" stop-color="#AD7121"/>
<stop offset="0.72" stop-color="#F0D56C"/>
<stop offset="0.79" stop-color="#F6E57D"/>
<stop offset="0.84" stop-color="#F5EFA2"/>
<stop offset="0.89" stop-color="#FFF0C3"/>
<stop offset="1" stop-color="#F9C94A"/>
</linearGradient>
<linearGradient id="paint18_linear_1101_10232" x1="93.4258" y1="196.731" x2="145.902" y2="192.665" gradientUnits="userSpaceOnUse">
<stop offset="0.07" stop-color="#FAD05F"/>
<stop offset="0.15" stop-color="#F5EDA4"/>
<stop offset="0.38" stop-color="#F1CF6E"/>
<stop offset="0.47" stop-color="#ECC45E"/>
<stop offset="0.57" stop-color="#E2B450"/>
<stop offset="0.65" stop-color="#AD7121"/>
<stop offset="0.72" stop-color="#F0D56C"/>
<stop offset="0.79" stop-color="#F6E57D"/>
<stop offset="0.84" stop-color="#F5EFA2"/>
<stop offset="0.89" stop-color="#FFF0C3"/>
<stop offset="1" stop-color="#F9C94A"/>
</linearGradient>
<linearGradient id="paint19_linear_1101_10232" x1="121.239" y1="12.7541" x2="131.283" y2="13.7317" gradientUnits="userSpaceOnUse">
<stop stop-color="#B36D14"/>
<stop offset="0.08" stop-color="#E89F2E"/>
<stop offset="0.15" stop-color="#FFE94C"/>
<stop offset="0.2" stop-color="#F2CA3E"/>
<stop offset="0.25" stop-color="#E9B233"/>
<stop offset="0.31" stop-color="#E2A12B"/>
<stop offset="0.37" stop-color="#DE9727"/>
<stop offset="0.45" stop-color="#DD9426"/>
<stop offset="0.49" stop-color="#DA9124"/>
<stop offset="0.52" stop-color="#D08A1F"/>
<stop offset="0.54" stop-color="#C17E17"/>
<stop offset="0.56" stop-color="#AB6D0C"/>
<stop offset="0.73" stop-color="#C48C21"/>
<stop offset="0.78" stop-color="#C68E21"/>
<stop offset="0.81" stop-color="#CF9524"/>
<stop offset="0.83" stop-color="#DDA229"/>
<stop offset="0.86" stop-color="#F5B731"/>
<stop offset="0.95" stop-color="#BF8437"/>
<stop offset="1" stop-color="#863A14"/>
</linearGradient>
<linearGradient id="paint20_linear_1101_10232" x1="108.676" y1="104.083" x2="134.179" y2="102.107" gradientUnits="userSpaceOnUse">
<stop stop-color="#B36D14"/>
<stop offset="0.08" stop-color="#E89F2E"/>
<stop offset="0.15" stop-color="#FFE94C"/>
<stop offset="0.2" stop-color="#F2CA3E"/>
<stop offset="0.25" stop-color="#E9B233"/>
<stop offset="0.31" stop-color="#E2A12B"/>
<stop offset="0.37" stop-color="#DE9727"/>
<stop offset="0.45" stop-color="#DD9426"/>
<stop offset="0.49" stop-color="#DA9124"/>
<stop offset="0.52" stop-color="#D08A1F"/>
<stop offset="0.54" stop-color="#C17E17"/>
<stop offset="0.56" stop-color="#AB6D0C"/>
<stop offset="0.73" stop-color="#C48C21"/>
<stop offset="0.78" stop-color="#C68E21"/>
<stop offset="0.81" stop-color="#CF9524"/>
<stop offset="0.83" stop-color="#DDA229"/>
<stop offset="0.86" stop-color="#F5B731"/>
<stop offset="0.95" stop-color="#BF8437"/>
<stop offset="1" stop-color="#863A14"/>
</linearGradient>
<linearGradient id="paint21_linear_1101_10232" x1="106.885" y1="57.0223" x2="134.626" y2="54.8732" gradientUnits="userSpaceOnUse">
<stop offset="0.07" stop-color="#FAD05F"/>
<stop offset="0.15" stop-color="#F5EDA4"/>
<stop offset="0.38" stop-color="#F1CF6E"/>
<stop offset="0.47" stop-color="#ECC45E"/>
<stop offset="0.57" stop-color="#E2B450"/>
<stop offset="0.65" stop-color="#AD7121"/>
<stop offset="0.72" stop-color="#F0D56C"/>
<stop offset="0.79" stop-color="#F6E57D"/>
<stop offset="0.84" stop-color="#F5EFA2"/>
<stop offset="0.89" stop-color="#FFF0C3"/>
<stop offset="1" stop-color="#F9C94A"/>
</linearGradient>
<linearGradient id="paint22_linear_1101_10232" x1="106.568" y1="166.97" x2="143.218" y2="164.131" gradientUnits="userSpaceOnUse">
<stop stop-color="#B36D14"/>
<stop offset="0.08" stop-color="#E89F2E"/>
<stop offset="0.15" stop-color="#FFE94C"/>
<stop offset="0.2" stop-color="#F2CA3E"/>
<stop offset="0.25" stop-color="#E9B233"/>
<stop offset="0.31" stop-color="#E2A12B"/>
<stop offset="0.37" stop-color="#DE9727"/>
<stop offset="0.45" stop-color="#DD9426"/>
<stop offset="0.49" stop-color="#DA9124"/>
<stop offset="0.52" stop-color="#D08A1F"/>
<stop offset="0.54" stop-color="#C17E17"/>
<stop offset="0.56" stop-color="#AB6D0C"/>
<stop offset="0.73" stop-color="#C48C21"/>
<stop offset="0.78" stop-color="#C68E21"/>
<stop offset="0.81" stop-color="#CF9524"/>
<stop offset="0.83" stop-color="#DDA229"/>
<stop offset="0.86" stop-color="#F5B731"/>
<stop offset="0.95" stop-color="#BF8437"/>
<stop offset="1" stop-color="#863A14"/>
</linearGradient>
<linearGradient id="paint23_linear_1101_10232" x1="105.884" y1="137.395" x2="137.101" y2="134.977" gradientUnits="userSpaceOnUse">
<stop offset="0.07" stop-color="#FAD05F"/>
<stop offset="0.15" stop-color="#F5EDA4"/>
<stop offset="0.38" stop-color="#F1CF6E"/>
<stop offset="0.47" stop-color="#ECC45E"/>
<stop offset="0.57" stop-color="#E2B450"/>
<stop offset="0.65" stop-color="#AD7121"/>
<stop offset="0.72" stop-color="#F0D56C"/>
<stop offset="0.79" stop-color="#F6E57D"/>
<stop offset="0.84" stop-color="#F5EFA2"/>
<stop offset="0.89" stop-color="#FFF0C3"/>
<stop offset="1" stop-color="#F9C94A"/>
</linearGradient>
<linearGradient id="paint24_linear_1101_10232" x1="1476.58" y1="401.826" x2="1483.61" y2="401.317" gradientUnits="userSpaceOnUse">
<stop offset="0.07" stop-color="#FAD05F"/>
<stop offset="0.15" stop-color="#F5EDA4"/>
<stop offset="0.38" stop-color="#F1CF6E"/>
<stop offset="0.47" stop-color="#ECC45E"/>
<stop offset="0.57" stop-color="#E2B450"/>
<stop offset="0.65" stop-color="#AD7121"/>
<stop offset="0.72" stop-color="#F0D56C"/>
<stop offset="0.79" stop-color="#F6E57D"/>
<stop offset="0.84" stop-color="#F5EFA2"/>
<stop offset="0.89" stop-color="#FFF0C3"/>
<stop offset="1" stop-color="#F9C94A"/>
</linearGradient>
<linearGradient id="paint25_linear_1101_10232" x1="1479.9" y1="270.295" x2="1501.38" y2="268.741" gradientUnits="userSpaceOnUse">
<stop stop-color="#B36D14"/>
<stop offset="0.08" stop-color="#E89F2E"/>
<stop offset="0.15" stop-color="#FFE94C"/>
<stop offset="0.2" stop-color="#F2CA3E"/>
<stop offset="0.25" stop-color="#E9B233"/>
<stop offset="0.31" stop-color="#E2A12B"/>
<stop offset="0.37" stop-color="#DE9727"/>
<stop offset="0.45" stop-color="#DD9426"/>
<stop offset="0.49" stop-color="#DA9124"/>
<stop offset="0.52" stop-color="#D08A1F"/>
<stop offset="0.54" stop-color="#C17E17"/>
<stop offset="0.56" stop-color="#AB6D0C"/>
<stop offset="0.73" stop-color="#C48C21"/>
<stop offset="0.78" stop-color="#C68E21"/>
<stop offset="0.81" stop-color="#CF9524"/>
<stop offset="0.83" stop-color="#DDA229"/>
<stop offset="0.86" stop-color="#F5B731"/>
<stop offset="0.95" stop-color="#BF8437"/>
<stop offset="1" stop-color="#863A14"/>
</linearGradient>
<linearGradient id="paint26_linear_1101_10232" x1="1455.94" y1="341.934" x2="1480.39" y2="340.166" gradientUnits="userSpaceOnUse">
<stop stop-color="#B36D14"/>
<stop offset="0.08" stop-color="#E89F2E"/>
<stop offset="0.15" stop-color="#FFE94C"/>
<stop offset="0.2" stop-color="#F2CA3E"/>
<stop offset="0.25" stop-color="#E9B233"/>
<stop offset="0.31" stop-color="#E2A12B"/>
<stop offset="0.37" stop-color="#DE9727"/>
<stop offset="0.45" stop-color="#DD9426"/>
<stop offset="0.49" stop-color="#DA9124"/>
<stop offset="0.52" stop-color="#D08A1F"/>
<stop offset="0.54" stop-color="#C17E17"/>
<stop offset="0.56" stop-color="#AB6D0C"/>
<stop offset="0.73" stop-color="#C48C21"/>
<stop offset="0.78" stop-color="#C68E21"/>
<stop offset="0.81" stop-color="#CF9524"/>
<stop offset="0.83" stop-color="#DDA229"/>
<stop offset="0.86" stop-color="#F5B731"/>
<stop offset="0.95" stop-color="#BF8437"/>
<stop offset="1" stop-color="#863A14"/>
</linearGradient>
<linearGradient id="paint27_linear_1101_10232" x1="1452.99" y1="304.296" x2="1503.85" y2="300.617" gradientUnits="userSpaceOnUse">
<stop offset="0.07" stop-color="#FAD05F"/>
<stop offset="0.15" stop-color="#F5EDA4"/>
<stop offset="0.38" stop-color="#F1CF6E"/>
<stop offset="0.47" stop-color="#ECC45E"/>
<stop offset="0.57" stop-color="#E2B450"/>
<stop offset="0.65" stop-color="#AD7121"/>
<stop offset="0.72" stop-color="#F0D56C"/>
<stop offset="0.79" stop-color="#F6E57D"/>
<stop offset="0.84" stop-color="#F5EFA2"/>
<stop offset="0.89" stop-color="#FFF0C3"/>
<stop offset="1" stop-color="#F9C94A"/>
</linearGradient>
<linearGradient id="paint28_linear_1101_10232" x1="1472.62" y1="382.841" x2="1482.2" y2="382.147" gradientUnits="userSpaceOnUse">
<stop stop-color="#B36D14"/>
<stop offset="0.08" stop-color="#E89F2E"/>
<stop offset="0.15" stop-color="#FFE94C"/>
<stop offset="0.2" stop-color="#F2CA3E"/>
<stop offset="0.25" stop-color="#E9B233"/>
<stop offset="0.31" stop-color="#E2A12B"/>
<stop offset="0.37" stop-color="#DE9727"/>
<stop offset="0.45" stop-color="#DD9426"/>
<stop offset="0.49" stop-color="#DA9124"/>
<stop offset="0.52" stop-color="#D08A1F"/>
<stop offset="0.54" stop-color="#C17E17"/>
<stop offset="0.56" stop-color="#AB6D0C"/>
<stop offset="0.73" stop-color="#C48C21"/>
<stop offset="0.78" stop-color="#C68E21"/>
<stop offset="0.81" stop-color="#CF9524"/>
<stop offset="0.83" stop-color="#DDA229"/>
<stop offset="0.86" stop-color="#F5B731"/>
<stop offset="0.95" stop-color="#BF8437"/>
<stop offset="1" stop-color="#863A14"/>
</linearGradient>
<linearGradient id="paint29_linear_1101_10232" x1="1470.9" y1="361.963" x2="1481.92" y2="361.166" gradientUnits="userSpaceOnUse">
<stop offset="0.07" stop-color="#FAD05F"/>
<stop offset="0.15" stop-color="#F5EDA4"/>
<stop offset="0.38" stop-color="#F1CF6E"/>
<stop offset="0.47" stop-color="#ECC45E"/>
<stop offset="0.57" stop-color="#E2B450"/>
<stop offset="0.65" stop-color="#AD7121"/>
<stop offset="0.72" stop-color="#F0D56C"/>
<stop offset="0.79" stop-color="#F6E57D"/>
<stop offset="0.84" stop-color="#F5EFA2"/>
<stop offset="0.89" stop-color="#FFF0C3"/>
<stop offset="1" stop-color="#F9C94A"/>
</linearGradient>
</defs>
</svg>
