<svg width="17" height="17" viewBox="0 0 17 17" fill="none" xmlns="http://www.w3.org/2000/svg">
<path d="M8.5911 2.40552C5.15011 2.40552 2.36035 5.19528 2.36035 8.63627C2.36035 12.0773 5.15011 14.867 8.5911 14.867C12.0321 14.867 14.8219 12.0773 14.8219 8.63627C14.8219 5.19528 12.0321 2.40552 8.5911 2.40552ZM11.4668 9.59484H8.5911C8.46399 9.59484 8.34208 9.54435 8.25219 9.45446C8.16231 9.36458 8.11181 9.24267 8.11181 9.11556V4.80196C8.11181 4.67484 8.16231 4.55294 8.25219 4.46305C8.34208 4.37317 8.46399 4.32267 8.5911 4.32267C8.71822 4.32267 8.84013 4.37317 8.93001 4.46305C9.01989 4.55294 9.07039 4.67484 9.07039 4.80196V8.63627H11.4668C11.5939 8.63627 11.7159 8.68676 11.8057 8.77665C11.8956 8.86653 11.9461 8.98844 11.9461 9.11556C11.9461 9.24267 11.8956 9.36458 11.8057 9.45446C11.7159 9.54435 11.5939 9.59484 11.4668 9.59484Z" fill="#0085FF"/>
</svg>
