<svg width="358" height="239" viewBox="0 0 358 239" fill="none" xmlns="http://www.w3.org/2000/svg">
<g clip-path="url(#clip0_946_14785)">
<path d="M98.8112 135.878L98.581 135.878L95.5003 135.88L84.5043 135.884C75.4041 135.888 63.2705 135.894 51.1368 135.9L17.7687 135.916L6.77203 135.921L3.69079 135.922L2.87878 135.922L2.67032 135.922L2.6171 135.922L2.60285 135.922L2.59758 135.922C2.59493 135.922 2.3472 135.884 2.12283 135.778L1.83939 135.589L1.76242 135.257L2.5999 135.062C1.76242 135.257 1.76239 135.257 1.76236 135.256L1.76229 135.256L1.76206 135.255L1.76135 135.252L1.75885 135.241L1.74988 135.201C1.74221 135.167 1.7313 135.118 1.71788 135.056C1.69108 134.931 1.65419 134.754 1.61327 134.543C1.53184 134.121 1.43257 133.552 1.36581 132.976C1.30082 132.416 1.25888 131.788 1.3183 131.276C1.34704 131.028 1.40821 130.719 1.56526 130.449C1.74445 130.14 2.0885 129.832 2.60063 129.833M98.8112 135.878L97.4164 130.736L97.887 129.877M98.8112 135.878V135.881L99.6738 135.878C100.73 135.875 101.757 135.311 102.3 134.315L102.3 134.315L130.379 82.8042L172.017 224.686L171.607 225.234L172.184 225.254L172.41 226.025L172.417 226.049L172.425 226.072C173.252 228.385 176.404 228.392 177.386 226.26L177.396 226.237L177.405 226.214L177.705 225.447L177.808 225.451L177.764 225.297L212.967 135.281C263.412 135.121 273.755 134.902 283.942 134.641C284.392 134.629 284.841 134.618 285.294 134.606C295.186 134.351 306.583 134.056 355.559 133.738L356.414 133.732V132.878C356.414 132.587 356.275 132.382 356.175 132.276C356.081 132.174 355.982 132.116 355.929 132.088C355.821 132.03 355.715 131.999 355.654 131.983C355.519 131.948 355.355 131.921 355.185 131.9C354.835 131.854 354.328 131.812 353.671 131.772C352.35 131.691 350.357 131.613 347.653 131.537C342.241 131.386 333.947 131.245 322.411 131.115C299.337 130.855 263.276 130.638 211.324 130.469H211.323C210.404 130.466 209.521 130.996 209.121 131.894L209.123 131.894C209.114 131.912 209.109 131.923 209.109 131.924L209.107 131.929L209.101 131.942L209.081 131.993L209.002 132.191L208.696 132.962L207.533 135.889L203.384 146.332L190.796 178.02C186.218 189.543 181.641 201.066 178.207 209.708L175.339 216.929L134.355 75.5086L134.414 75.4004L134.322 75.3933L133.98 74.2126L133.972 74.1864L133.963 74.1606C133.729 73.5102 133.262 72.935 132.607 72.5767L132.607 72.5765C131.181 71.7966 129.39 72.3222 128.613 73.7517L97.887 129.877M98.8112 135.878L98.8668 129.877L97.887 129.877M2.60063 129.833L2.5999 130.693L2.6003 129.833H2.60063ZM2.60063 129.833L97.887 129.877" fill="url(#paint0_linear_946_14785)" stroke="white" stroke-width="1.71942"/>
</g>
<path fill-rule="evenodd" clip-rule="evenodd" d="M190.185 126.827C190.185 66.1884 189.273 65.2505 130.356 65.2505C189.273 65.2505 190.185 64.3125 190.185 3.67358C190.185 64.3125 191.095 65.2505 250.013 65.2505C191.095 65.2505 190.185 66.1884 190.185 126.827Z" fill="url(#paint1_linear_946_14785)" stroke="#FEAFFF" stroke-width="0.859712"/>
<defs>
<linearGradient id="paint0_linear_946_14785" x1="346.375" y1="73.0754" x2="301.459" y2="289.183" gradientUnits="userSpaceOnUse">
<stop stop-color="#6BF3FE"/>
<stop offset="0.364583" stop-color="#C8AEFF"/>
<stop offset="0.697917" stop-color="#FFFED5"/>
<stop offset="1" stop-color="#FD7FFF"/>
</linearGradient>
<linearGradient id="paint1_linear_946_14785" x1="130.356" y1="3.67358" x2="250.013" y2="3.67358" gradientUnits="userSpaceOnUse">
<stop stop-color="#D5A9DE"/>
<stop offset="0.18" stop-color="#F1F4FC"/>
<stop offset="0.37" stop-color="#C6EBD5"/>
<stop offset="0.57" stop-color="#B9C5E7"/>
<stop offset="0.79" stop-color="#F1F4FC"/>
<stop offset="1" stop-color="#F6E5B5"/>
</linearGradient>
<clipPath id="clip0_946_14785">
<rect width="357.64" height="158.187" fill="white" transform="translate(0 71.3562)"/>
</clipPath>
</defs>
</svg>
